<?xml version="1.0" encoding="UTF-8"?>
<svg width="554px" height="457px" viewBox="0 0 554 457" version="1.1" xmlns="http://www.w3.org/2000/svg" xmlns:xlink="http://www.w3.org/1999/xlink">
    <!-- Generator: Sketch 61.2 (89653) - https://sketch.com -->
    <title>illustration 1</title>
    <desc>Created with Sketch.</desc>
    <g id="Desktop" stroke="none" stroke-width="1" fill="none" fill-rule="evenodd">
        <g id="Landing-page-2" transform="translate(-976.000000, -2672.000000)">
            <g id="Section-1" transform="translate(391.000000, 2672.000000)">
                <g id="Group-1" transform="translate(1.000000, 0.000000)">
                    <g id="illustration-1" transform="translate(584.000000, 0.000000)">
                        <path d="M482.102076,45.7055476 C506.560797,57.2068866 521.059392,83.6537515 532.470015,109.106979 C544.314087,135.527714 554.811066,163.702675 553.950542,192.888223 C553.090726,222.073065 538.313081,252.527672 512.380491,263.098933 C473.569075,278.919453 432.554292,246.055256 390.9807,243.673915 C348.361021,241.231841 310.894573,270.675155 276.466519,297.155212 C242.038465,323.635269 200.971272,349.80883 159.361558,339.827962 C115.115029,329.215035 86.965615,272.456217 104.062072,228.327262 C120.66063,185.486434 167.942012,163.985159 189.030878,123.379486 C211.89391,79.3585812 229.416734,-45.5304513 301.088846,17.3639208 C319.214391,33.2691864 329.896224,52.2669464 355.430777,55.6927719 C398.428661,61.4618029 438.666493,25.2819493 482.102076,45.7055476" id="Fill-3" fill="#D0E9FE"></path>
                        <path d="M378,30.1130053 L378,47.8864666 C378,53.3665995 387,53.3757542 387,47.8864666 L387,30.1130053 C387,24.6335765 378,24.6244219 378,30.1130053" id="Fill-472" fill="#6C83AC"></path>
                        <path d="M353.265965,73.7262777 C344.900527,165.947845 336.535089,258.169412 328.170354,350.391685 C327.165602,361.470777 326.548699,372.675471 325.014169,383.692467 C324.556761,386.980702 323.31944,391.429697 324.488606,394.639606 C325.309973,396.89621 328.123278,397.679459 330.06533,396.353581 C332.832965,394.46461 332.137368,389.477925 332.398041,386.605307 C332.955924,380.45645 333.513105,374.308298 334.070988,368.160146 L337.133725,334.395766 C341.309417,288.351311 345.487218,242.306151 349.66291,196.260991 C352.01951,170.288173 354.375408,144.31465 356.731305,118.341832 C357.852692,105.977083 358.696543,93.5495327 360.33998,81.2447621 C360.699021,78.556313 362.00309,72.982544 359.499642,70.8832957 C357.139529,68.9032988 354.284769,70.5262471 353.356603,73.0460507 C352.216948,76.1402369 357.14234,77.4752883 358.272861,74.4072104 C357.391771,74.3662838 356.510681,74.326063 355.629591,74.2851364 C355.698448,74.9568959 355.719527,75.6300666 355.692827,76.3032374 C355.682288,77.4809333 355.570571,78.6480448 355.432154,79.8165676 C355.210125,81.6956595 354.866542,83.5592275 354.642405,85.4376138 C353.997396,90.8258021 353.635545,96.2612676 353.145816,101.667097 C352.205706,112.025741 351.266298,122.38509 350.326187,132.745145 C348.405917,153.916859 346.485646,175.089278 344.565376,196.260991 C340.772613,238.078018 336.979147,279.895045 333.185682,321.712777 C331.274546,342.784291 329.362707,363.856511 327.452273,384.928025 C327.350392,386.046448 327.249215,387.164165 327.147334,388.281883 C326.966057,390.28446 326.13134,391.310445 328.13452,392.194599 C330.248715,393.127442 329.347249,392.339254 329.362004,390.734652 C329.372543,389.557661 329.484261,388.39055 329.622677,387.222027 C330.191803,382.415983 330.796059,377.648043 331.233794,372.823653 C332.168283,362.522165 333.102773,352.220677 334.037262,341.919189 C337.865156,299.714066 341.69305,257.509648 345.522349,215.304525 C349.80203,168.112011 354.083116,120.918792 358.364202,73.7262777 C358.661412,70.4465109 353.561769,70.4662685 353.265965,73.7262777" id="Fill-474" fill="#6C83AC"></path>
                        <path d="M428.369955,350.972754 C429.365304,361.856433 430.656703,372.761328 431.297077,383.67188 C431.461785,386.480138 431.312696,401.966221 438.341907,397.039217 C441.215073,395.025135 439.536752,390.081158 439.279751,387.266535 C438.716051,381.104068 438.152351,374.942307 437.588651,368.780546 C436.557094,357.50084 435.526247,346.221133 434.49469,334.941427 C430.27404,288.795051 426.054099,242.647969 421.834159,196.500886 C419.452988,170.470577 417.073237,144.43956 414.692066,118.40925 C413.558276,106.012888 412.208662,93.6144046 411.468895,81.1890477 C411.298507,78.3228 411.635023,72.8547943 409.121801,70.8477845 C406.900369,69.0734407 403.626791,70.2219199 403.104978,73.0132052 C402.500811,76.2408278 407.464779,77.6248019 408.071786,74.3773779 C407.215586,74.3363608 406.359387,74.2960509 405.503188,74.2550337 C405.550045,74.7104651 405.625299,75.1609462 405.728242,75.6071841 C405.503188,76.7570777 406.136463,78.5349575 406.233016,79.7711285 C406.378556,81.6444791 406.410504,83.5256088 406.540424,85.3996666 C406.917408,90.8379703 407.516605,96.2684948 408.01286,101.697605 C408.962772,112.079178 409.911975,122.461458 410.861178,132.844446 C412.80147,154.063024 414.741762,175.282308 416.682764,196.500886 C420.515072,238.410476 424.34809,280.320067 428.180398,322.230364 C430.112171,343.348521 432.043234,364.467385 433.974297,385.585541 C434.07724,386.70644 434.179473,387.826631 434.282415,388.946823 C434.471972,391.024552 433.911112,392.043615 435.996234,392.8682 C438.608138,393.9007 436.923428,393.356163 437.1783,392.076853 C437.406194,390.930495 436.770079,389.145544 436.673526,387.912201 C436.299382,383.091276 436.017532,378.27318 435.576653,373.454376 C434.63242,363.130085 433.688897,352.805795 432.744664,342.481504 C428.876859,300.182958 425.007634,257.88512 421.139828,215.586574 C416.814105,168.289598 412.489092,120.991914 408.164079,73.694938 C407.86519,70.4333702 402.711666,70.4022537 403.012685,73.694938 C411.464635,166.120641 419.918005,258.546344 428.369955,350.972754 Z" id="Fill-476" fill="#6C83AC"></path>
                        <path d="M325.716035,92 L427.482561,92 L442.284231,92 C444.569798,92 444.574047,89 442.284231,89 L340.517705,89 L325.716035,89 C323.429759,89 323.426219,92 325.716035,92" id="Fill-478" fill="#992780"></path>
                        <polygon id="Fill-480" fill="#FFFFFF" points="303 247 459 247 459 38 303 38"></polygon>
                        <path d="M302.990437,253 L443.794224,253 L464.009032,253 C466.661176,253 466.666135,246 464.009032,246 L323.205954,246 L302.990437,246 C300.339001,246 300.334042,253 302.990437,253" id="Fill-482" fill="#10264D"></path>
                        <path d="M302.990437,44 L443.794224,44 L464.009032,44 C466.661176,44 466.666135,37 464.009032,37 L323.205954,37 L302.990437,37 C300.339001,37 300.334042,44 302.990437,44" id="Fill-483" fill="#10264D"></path>
                        <polygon id="Fill-484" fill="#6C83AC" points="335 320 430 320 430 318 335 318"></polygon>
                        <path d="M362.472886,70 L404.527643,70 C407.821296,70 407.826941,66 404.527643,66 L362.472886,66 C359.178528,66 359.172883,70 362.472886,70" id="Fill-485" fill="#6C83AC"></path>
                        <path d="M321.24772,82 L427.484091,82 L442.75228,82 C444.414482,82 444.417331,80 442.75228,80 L336.515197,80 L321.24772,80 C319.585518,80 319.582669,82 321.24772,82" id="Fill-486" fill="#6C83AC"></path>
                        <path d="M322.221427,92 L386.778573,92 C388.405748,92 388.408536,90 386.778573,90 L322.221427,90 C320.594252,90 320.591464,92 322.221427,92" id="Fill-487" fill="#6C83AC"></path>
                        <path d="M398.247965,92 L442.752302,92 C444.414831,92 444.416968,90 442.752302,90 L398.247965,90 C396.585437,90 396.582587,92 398.247965,92" id="Fill-488" fill="#6C83AC"></path>
                        <path d="M322.186486,102 L346.813514,102 C348.394141,102 348.396849,100 346.813514,100 L322.186486,100 C320.605859,100 320.603151,102 322.186486,102" id="Fill-489" fill="#6C83AC"></path>
                        <path d="M359.186486,102 L383.813514,102 C385.394141,102 385.396849,100 383.813514,100 L359.186486,100 C357.605859,100 357.603151,102 359.186486,102" id="Fill-490" fill="#6C83AC"></path>
                        <path d="M343.224149,111 L391.776637,111 C393.40674,111 393.408835,109 391.776637,109 L343.224149,109 C341.593347,109 341.590554,111 343.224149,111" id="Fill-491" fill="#6C83AC"></path>
                        <path d="M321.211786,111 L333.788214,111 C335.402545,111 335.405312,109 333.788214,109 L321.211786,109 C319.597455,109 319.594688,111 321.211786,111" id="Fill-492" fill="#6C83AC"></path>
                        <path d="M398.254706,111 L416.74583,111 C418.416625,111 418.419488,109 416.74583,109 L398.254706,109 C396.583197,109 396.580333,111 398.254706,111" id="Fill-493" fill="#6C83AC"></path>
                        <path d="M424.254202,111 L442.745798,111 C444.416635,111 444.419499,109 442.745798,109 L424.254202,109 C422.583365,109 422.580501,111 424.254202,111" id="Fill-494" fill="#6C83AC"></path>
                        <path d="M394.230541,102 L442.769459,102 C444.408775,102 444.411585,100 442.769459,100 L394.230541,100 C392.591225,100 392.588415,102 394.230541,102" id="Fill-495" fill="#6C83AC"></path>
                        <path d="M442.700714,217.188334 L430.489959,217.188334 L430.489959,150 L412.9374,150 L412.9374,217.188334 L408.875463,217.188334 L408.875463,158.348553 L391.323616,158.348553 L391.323616,217.188334 L386.231941,217.188334 L386.231941,167.030367 L368.679382,167.030367 L368.679382,217.188334 L365.646469,217.188334 L365.646469,177.382033 L348.094622,177.382033 L348.094622,217.188334 L345.108029,217.188334 L345.108029,189.069581 L327.556183,189.069581 L327.556183,217.188334 L316.68943,217.188334 L316.68943,164.545087 L316.68943,156.942473 C316.68943,155.776767 314,155.77464 314,156.942473 L314,210.491198 L314,218.093813 C314,218.583778 314.616417,219 315.344715,219 L426.970326,219 L442.700714,219 C444.43167,219 444.43452,217.188334 442.700714,217.188334" id="Fill-496" fill="#6C83AC"></path>
                        <polygon id="Fill-497" fill="#1494FC" points="328.495365 176 328 173.854045 423.50534 127 424 129.145955"></polygon>
                        <polygon id="Fill-498" fill="#1494FC" points="421.478423 139 421.936726 130.429237 418 124 432 125.521768"></polygon>
                        <path d="M148.078562,197.696513 C148.078562,197.696513 136.887391,208.957975 128.546374,218.00543 C125.433706,221.381283 121.92196,215.513362 120.712696,212.803318 C118.371296,207.553698 116.368829,202.067936 112.426871,197.725158 C105.803164,190.427809 96.0349478,187.023311 86.4627324,185.544978 C76.8678744,184.06385 66.9850291,183.124871 57.5069226,185.214519 C51.068603,186.634865 45.2140414,189.333032 39.8031358,192.793422 C31.564719,198.062604 24.3544237,205.099358 17.6755251,212.081617 C10.0689821,220.034295 -5.37406935,232.540044 1.89707825,244.842486 C5.14418766,250.337331 41.4595933,268.568476 41.4595933,268.568476 L45.3166413,263.809305 C45.3166413,263.809305 24.7068013,240.66878 23.7798644,238.862084 C22.8536351,237.054689 36.4421052,227.862614 40.1470223,231.21681 C43.8533547,234.570307 49.3265278,262.851463 49.3265278,262.851463 C69.9307071,278.935672 95.3018893,262.851463 95.3018893,262.851463 C96.7467787,261.93484 97.3736993,253.452589 97.7182934,251.845007 C98.9855789,245.947743 97.905096,240.669479 99.8835048,235.041892 C100.758788,232.551921 102.805832,231.848385 105.384981,232.741952 C113.906432,235.693728 121.11319,249.22369 131.010187,241.046049 C137.555352,235.637836 140.784771,226.902676 144.31633,219.549436 C147.241488,213.458647 149.886442,207.163854 152,200.746798 C149.899887,200.159238 148.078562,197.696513 148.078562,197.696513" id="Fill-499" fill="#6C83AC"></path>
                        <path d="M58.0304619,417.000033 C55.5712102,415.841454 50.4290711,412.514578 50.4290711,412.514578 C50.4290711,412.514578 47.6499167,413.15285 45.7823368,411 C45.7823368,411 43.5504233,413.423185 43.3682565,415.408918 C43.1860898,417.395354 42.6395894,421.45389 43.3682565,422.058457 C44.0961832,422.662323 47.2841021,422.749392 48.8325199,422.058457 C50.3801971,421.368225 52.657282,421.821826 54.3878666,422.544358 C56.1177106,423.267592 63.4029013,423.353959 63.9494017,421.109125 C64.4959021,418.863589 60.4889732,418.158612 58.0304619,417.000033" id="Fill-501" fill="#343C4E"></path>
                        <path d="M99.0299095,417.000469 C96.5715051,415.841598 91.4299281,412.515716 91.4299281,412.515716 C91.4299281,412.515716 88.6506373,413.154392 86.7829894,411 C86.7829894,411 84.5500928,413.423603 84.3682079,415.409037 C84.1855836,417.395172 83.6399287,421.454375 84.3682079,422.058698 C85.0964871,422.663022 88.2839099,422.749253 89.8321501,422.058698 C91.3803903,421.367442 93.6569097,421.822437 95.3870348,422.544541 C97.1178994,423.267345 104.402909,423.354278 104.949303,421.108747 C105.496437,418.863916 101.488314,418.158639 99.0299095,417.000469" id="Fill-502" fill="#343C4E"></path>
                        <path d="M94.24093,262 C94.24093,262 67.897765,274.314898 48.1855783,262 C48.1855783,262 33.1133044,282.750557 34.0411452,301.999817 C34.968986,321.249076 43.7859543,338.145948 40.3056654,345.032751 C36.8260852,351.918844 32.6490296,369.111716 36.3611016,385.376837 C40.0738824,401.641247 45.1780699,413 45.1780699,413 L51.4425901,413 C51.4425901,413 54.4586043,370.816026 59.098517,359.972613 C63.7391386,349.130619 66.5233698,336.118664 67.4512106,324.036592 C68.3797602,311.954519 69.925689,302.888528 71.1632826,301.999817 C72.4008762,301.112525 77.1010383,337.358033 74.9058337,347.581053 C72.710629,357.804782 72.4008762,387.338106 82.9190041,413 L90.3431481,413 C90.3431481,413 94.6605493,362.02829 97.6793988,349.803541 C100.068819,340.127093 102.39232,286.414007 94.9228114,263.900224 C94.7030783,263.237949 94.476257,262.604778 94.24093,262" id="Fill-503" fill="#343C4E"></path>
                        <path d="M51.3788761,262 C49.6126321,262 44.6768639,263.070975 44.6768639,263.070975 L41,268.393042 C41,268.393042 43.4294288,269.926466 46.9625914,268.903923 C50.4957541,267.880599 53.8083049,271.460671 55.5745489,270.94979 C57.3414675,270.438128 53.1457947,262 51.3788761,262" id="Fill-504" fill="#FFC0C0"></path>
                        <path d="M166.406905,193.073137 C163.319761,194.468568 157.856095,193.073137 157.856095,193.073137 C157.856095,193.073137 161.775481,191.93142 160.943946,191.170276 C160.113825,190.410642 154.650159,192.43885 152.750215,192.43885 C150.849563,192.43885 148,196.624388 148,196.624388 C149.068409,200.809171 151.91868,199.92117 151.91868,199.92117 C151.91868,199.92117 154.174996,197.51239 157.974885,198.019819 C161.775481,198.527249 169.96992,195.228957 169.998911,193.812383 C170.027901,192.395809 169.494757,191.677705 166.406905,193.073137" id="Fill-505" fill="#FFC0C0"></path>
                        <path d="M66.7796014,159.332742 C64.9501969,160.128918 63.2740824,161.359373 62.2564671,163.031066 C61.0265489,165.052826 60.8603048,167.524175 61.0848422,169.859812 C61.157529,170.617015 61.2302158,171.406232 61.312978,172.21424 C61.7843628,176.783904 62.6062274,181.944438 65.8461877,185.244674 C68.4290881,187.875397 72.1303577,188.324986 75.6840946,187.815545 C82.6605884,186.816148 84.5979436,175.446968 84.5979436,175.446968 C84.5979436,175.446968 85.5025705,170.574562 84.5979436,166.327126 C82.8829669,158.270013 73.6610986,156.339424 66.7796014,159.332742" id="Fill-506" fill="#FFC0C0"></path>
                        <path d="M79.2471956,178.096324 C79.12264,178.268785 78.9945458,178.44547 78.8430975,178.592589 C78.7496808,178.682691 78.6484793,178.762235 78.5345392,178.823476 C77.990316,179.116308 77.3250757,178.927656 76.7298979,178.760123 C73.761086,177.922455 70.6011945,177.766184 67.5637355,178.305389 C67.0513589,178.396899 66.5212898,178.506711 66.0181133,178.377189 C65.6748776,178.289903 65.3691501,178.096324 65.0881923,177.882332 C63.2156115,176.455481 62.303383,174.141687 61.4760789,171.944745 C61.2113981,171.240823 60.9424712,170.513671 60.9665331,169.761881 C61.0196108,168.128077 62.3946767,166.883542 63.6628795,165.843849 C64.6317242,165.04912 65.6352463,164.23609 66.8369251,163.870754 C67.8963557,163.549061 69.030095,163.601855 70.1284493,163.456143 C71.3704671,163.291426 72.5763921,162.869072 73.6471459,162.222871 C74.1014909,161.949045 74.7582388,161.661845 75.0873205,162.077159 C75.2154146,162.239765 75.2338149,162.460093 75.2706154,162.663527 C75.4652336,163.74264 76.2819222,164.597202 77.1085187,165.322946 C78.1375181,166.226079 79.2429494,167.043333 80.4099507,167.761334 C85.0503558,170.619259 81.4474426,175.040596 79.2471956,178.096324 M82.2761622,157.84025 C81.3235946,156.79774 81.4184268,156.513356 81.5139666,154.333308 C81.6087987,152.153964 77.3215372,151.869579 75.987518,152.532674 C74.6534989,153.195769 73.1284,152.153964 72.4652828,149.973916 C71.8021656,147.794571 65.2205326,149.690235 64.1724253,151.585194 C63.1243179,153.480858 62.8384061,156.039616 61.8858386,156.324001 C60.9325634,156.608385 59.5037121,157.935279 59.5376818,160.020298 C59.5723592,162.105316 58.3600649,164.854134 57.5023295,166.180324 C56.6453018,167.507218 56.8356738,168.644756 58.4556047,170.582655 C59.1873691,171.459039 59.7372539,171.963047 60.1293211,172.26503 C59.865348,174.162805 59.5044198,177.211493 59.694084,178.595405 C59.9799958,180.680424 60.4456641,182.955501 59.6410064,185.798644 C58.8363486,188.641787 62.9332382,191.800991 65.0301607,192.022727 C67.1263754,192.243055 66.5538441,195.181227 71.6995487,194.991168 C76.8452534,194.801813 77.2259973,191.800991 78.8459283,192.022727 C80.4658592,192.243055 83.7050135,190.63248 84.9434928,188.262373 C86.1826798,185.893674 84.467209,179.827269 84.467209,177.5536 C84.467209,176.02468 84.6186573,173.834073 84.4360701,172.696534 L84.4367778,172.696534 C84.4367778,172.696534 86.5634237,169.118496 86.9448754,167.602247 C87.326327,166.085998 85.6108562,164.190335 85.3935915,162.484026 C85.1756192,160.778422 83.2287297,158.882759 82.2761622,157.84025" id="Fill-507" fill="#343C4E"></path>
                        <path d="M71.7262806,180 C70.9165448,180 69.8864548,180.639008 70.0101718,181.203741 C70.0595524,181.430248 70.293712,181.644478 70.8007925,181.801621 C71.4799086,182.011555 73.6112393,182.291466 73.9425672,181.239957 C74.2282314,180.330246 73.4418585,180 71.7262806,180" id="Fill-508" fill="#FFC0C0"></path>
                        <path d="M516.13,336.688715 C516.605,336.611715 516.87,336.566715 516.87,336.566715 C516.87,336.566715 516.153,335.917715 516.13,336.688715" id="Fill-509" fill="#FEA086"></path>
                        <path d="M515.430589,338 C512.153162,338.54271 494.080532,341.400371 492,338.757825 C492,338.757825 493.515697,346.233439 497.321228,356.615924 C501.126065,366.998409 521.350611,430.094027 522.941851,442.598845 C522.941851,442.598845 526.645503,449.016456 529.031669,440.868079 C531.500309,432.437802 529.376115,366.277843 521.189131,350.742428 C516.368977,341.596506 515.407719,338.776103 515.430589,338" id="Fill-510" fill="#FFC0C0"></path>
                        <path d="M524.744097,443.682563 C524.744097,443.682563 521.21527,451.023784 514.066695,453.805274 C506.9167,456.585398 520.095819,459.06892 526.639208,454.358839 C533.182597,449.648757 533.787783,451.578715 536.461395,450.800991 C539.135007,450.023267 530.985604,442 530.985604,442 C530.985604,442 529.353308,444.454136 524.744097,443.682563" id="Fill-511" fill="#343C4E"></path>
                        <path d="M480.1295,342.594043 C480.6055,342.665043 480.8705,342.703043 480.8705,342.703043 C480.8705,342.703043 480.3875,341.867043 480.1295,342.594043" id="Fill-512" fill="#FEA086"></path>
                        <path d="M479.041111,342.572793 C475.810812,342.069794 458.037353,339.168748 456.873546,336 C456.873546,336 456.07313,343.603446 456.551743,354.691951 C457.031038,365.781161 457.225347,432.267811 455,444.692714 C455,444.692714 456.56197,451.967873 461.2172,444.937873 C466.034694,437.664123 483.699749,373.890423 480.648079,356.52078 C478.852256,346.295966 478.78885,343.305451 479.041111,342.572793" id="Fill-513" fill="#FFC0C0"></path>
                        <path d="M455.517926,445 C455.517926,445 449.955779,451.298723 442.44688,451.870414 C434.937981,452.442104 446.415285,459.058513 453.960941,456.352754 C461.506598,453.647719 461.46984,455.781064 464.196125,455.83172 C466.921716,455.882376 461.842268,445.251833 461.842268,445.251833 C461.842268,445.251833 459.561927,447.216566 455.517926,445" id="Fill-514" fill="#343C4E"></path>
                        <path d="M464.9683,236.35139 C464.9683,236.35139 451.660757,251.805804 452.006627,282.971862 C452.352497,314.137208 452.001706,334.446912 452.001706,334.446912 C452.001706,334.446912 480.714505,353.69136 525.517268,334.446912 C525.517268,334.446912 529.835014,255.069978 512.644172,233.828264 C495.453329,212.586549 464.9683,236.35139 464.9683,236.35139" id="Fill-515" fill="#343C4E"></path>
                        <path d="M489,251.509332 C489.29132,251.698374 489.626039,251.864539 490,252 L489.338873,250 L489,251.509332 Z" id="Fill-516" fill="#FFFFFF"></path>
                        <path d="M488.413453,251.489725 C488.924363,251.686896 489.45192,251.845856 489.996762,251.971189 C490.749682,252.143904 491.187605,251.503991 490.921906,251.013357 L490.004445,249.320847 C489.710576,248.778755 488.688756,248.986625 488.507568,249.476749 C488.35071,249.902679 488.193852,250.328099 488.036993,250.754029 C487.739923,251.560544 489.320671,251.904446 489.617101,251.099969 C489.773959,250.674549 489.930818,250.248619 490.087036,249.823199 C489.58829,249.875167 489.089545,249.927134 488.590159,249.979102 C488.896193,250.543611 489.200946,251.107612 489.50698,251.671102 C489.814935,251.352164 490.12417,251.033227 490.432124,250.714289 C490.023012,250.620034 489.624144,250.512023 489.240641,250.364273 C488.842413,250.210408 488.355192,250.27766 488.119584,250.598126 C487.909586,250.883947 488.013945,251.335351 488.413453,251.489725" id="Fill-517" fill="#E2C8CE"></path>
                        <path d="M495.484498,135.203082 C491.239998,133.249057 486.627593,131.539725 481.976537,132.112081 C471.083989,133.453671 465.861751,145.697439 457.436453,152.610706 C449.77989,158.893258 439.432041,160.651809 430.029005,163.924924 C429.331132,164.167507 428.636122,164.419934 427.946122,164.681502 C419.507225,167.875865 411.61088,172.45049 404.686546,178.164202 C397.636238,183.981275 391.18789,193.399828 395.272774,201.504917 C397.937576,206.790417 404.420281,209.313281 410.162167,209.195154 C415.994239,209.076323 419.956011,203.892076 425.828167,206.095012 C429.180105,207.352928 432.042459,209.7654 435.518225,210.642918 C441.543555,212.163809 447.838013,208.619985 451.818395,203.923717 C455.800209,199.228151 458.170115,193.44272 461.489844,188.274644 C466.012062,181.232702 473.959942,175.46063 482.312947,174.050836 C488.061991,173.080503 492.964997,174.03396 498.621706,172.630494 C509.541453,169.919891 515.534573,155.703817 509.762625,146.202996 C506.616112,141.022264 501.04601,137.763916 495.484498,135.203082" id="Fill-518" fill="#343C4E"></path>
                        <path d="M479.195357,174.018136 C447.249252,172.985878 440.859746,216.321129 431.443969,226.638813 C422.028192,236.957196 385.036876,255.873066 385.036876,255.873066 C384.587111,258.50725 388.400112,260 388.400112,260 C388.400112,260 430.771464,246.242622 437.497223,242.342435 C444.222982,238.449247 461.486786,214.938953 461.486786,214.938953 C463.275848,220.083448 467.311589,219.416504 467.311589,219.416504 C471.575781,228.35831 463.809854,236.566688 463.809854,236.566688 C466.244292,240.301713 474.945443,240.788099 483.890038,241.049138 C496.352789,241.414453 509.151791,238.759274 505.600082,234.088568 C499.493999,226.067747 500.267165,213.346826 502.735156,212.996208 C503.965939,212.81775 511.357777,217.305099 513.872887,220.496351 C516.401561,223.694602 518.54044,227.5465 518.204187,229.961635 C518.190623,230.050514 518.170633,230.147091 518.129941,230.243669 C516.442254,235.298585 488.16137,248.767631 488.16137,248.767631 L487.79085,249.991644 L488.813171,252.316499 C496.439886,254.434903 514.511838,251.33323 525.023469,246.029172 C529.785257,243.636432 533,240.781101 533,237.761308 C533,227.560497 528.292469,207.035004 522.57618,194.997823 C516.859178,182.959942 511.142176,175.049695 479.195357,174.018136" id="Fill-519" fill="#6C83AC"></path>
                        <path d="M509.133354,208.980964 C508.062496,206.454853 505.24522,205.30617 502.860888,206.433607 L479.808165,217.347513 C477.423833,218.474951 476.346701,221.468467 477.40989,223.995287 L484.562885,240.951465 L488.372238,250 L488.733374,248.761377 C488.733374,248.761377 516.351883,235.132273 518,230.016313 L513.842757,220.152651 L509.133354,208.980964 Z" id="Fill-522" fill="#566683"></path>
                        <path d="M525.196773,246 C514.855109,251.551601 497.502886,255.837278 490,253.618982 L494.635313,264.915588 C495.707756,267.529485 498.552152,268.717754 500.954087,267.551463 L524.171385,256.260718 C526.57332,255.094427 527.658405,251.998483 526.586664,249.384586 L525.196773,246 Z" id="Fill-523" fill="#566683"></path>
                        <path d="M486.961287,243.367021 C487.130348,244.797546 485.474301,244.223238 484.26683,240.715762 C483.06011,237.208287 482.807645,235.062498 481.740683,239.496341 C480.67372,243.929528 479.195,249.336941 489.833821,252 C489.833821,252 492.519261,250.099407 489.739898,246.732886 C489.739898,246.732886 486.792977,241.935184 486.961287,243.367021" id="Fill-524" fill="#FFC0C0"></path>
                        <path d="M380.005787,261.576247 C379.307443,264.950423 375.118086,266.300368 372.324708,266.300368 C369.53204,266.300368 367.437007,266.300368 368.135351,267.650313 C368.832985,269.000257 379.307443,270.349516 384.194434,266.300368 C389.082846,262.250533 390,262.481933 390,262.481933 L385.695555,256 C385.695555,256 380.703422,258.201385 380.005787,261.576247" id="Fill-525" fill="#FFC0C0"></path>
                        <path d="M493.571691,163.689449 C495.663471,160.199734 497.05421,152.523498 494.96881,149.730589 C492.877031,146.938391 492.877031,146.938391 490.089173,143.447966 C487.302024,139.952569 489.393803,143.447966 483.819506,146.938391 C478.245208,150.427396 473.36628,146.241585 474.06732,149.730589 C474.76269,153.220304 474.76269,159.502928 474.76269,159.502928 C475.603371,164.271187 478.468492,166.446132 481.727726,167.118789 L481.596592,172.807599 C481.596592,172.807599 482.009844,177.033187 487.05464,177 C488.901161,176.987728 491.215516,177 493.378888,173.764376 L491.878988,165.246432 C492.665088,164.749931 493.263347,164.210101 493.571691,163.689449" id="Fill-526" fill="#FFC0C0"></path>
                        <path d="M303.3588,200.376493 C311.646752,187.817936 299.160552,168.829426 283.514635,180.809112 C267.868719,192.788798 258.164778,216.907955 258.164778,216.907955 C249.367714,243.918663 261.701951,278.918631 261.701951,278.918631 C264.319641,279.440036 266.793071,277.285038 266.793071,277.285038 C266.793071,277.285038 268.010178,250.745976 273.114604,233.377044 C278.21833,216.007411 295.070848,212.93505 303.3588,200.376493" id="Fill-534" fill="#F3F6F8"></path>
                        <path d="M273.258415,286.141221 C271.937088,281.341518 265.097918,277 265.097918,277 C261.845893,279.433916 260.125842,278.745142 260.125842,278.745142 C260.125842,278.745142 259.538358,279.04386 260.902088,282.258635 C262.265135,285.474159 266.020522,285.910631 268.600257,286.94454 C271.18136,287.978449 270.866074,288.920272 271.369437,291.79066 C271.8728,294.661797 272.103964,296.88908 273.005366,295.649288 C273.907453,294.409496 274.579743,290.941672 273.258415,286.141221" id="Fill-536" fill="#FFC0C0"></path>
                        <path d="M281.012279,295.288502 L257.840982,289.706655 C264.369116,282.813332 278.497734,286.216713 281.012279,295.288502 M292.756885,298.116867 L283.080481,295.786574 C281.200362,284.04649 263.004117,279.66414 255.772781,289.208582 L245.46967,286.727151 C241.633636,285.802454 237.587063,288.658298 236.477519,293.072251 L231.284908,313.72955 C230.175364,318.14419 232.406383,322.511427 236.242416,323.436124 L283.529632,334.826527 C287.366367,335.74985 291.412239,332.894005 292.521783,328.480053 L297.715095,307.823441 C298.82464,303.408801 296.593621,299.041564 292.756885,298.116867" id="Fill-537" fill="#343C4E"></path>
                        <path d="M297.816801,256 C297.871314,255.596739 297.935657,255.195359 298,254.793352 C297.670241,254.534964 297.335121,254.266541 297,254 C297.255585,254.669802 297.527256,255.336469 297.816801,256" id="Fill-538" fill="#FEE2E8"></path>
                        <path d="M289.749948,177 C289.749948,177 276.475136,177.764993 275.145137,199.949088 C274.051071,218.20064 276.847737,226.582517 278.551775,238.567174 C280.254375,250.55183 274,262.366332 274,262.366332 C274,262.366332 294.218283,270.194854 312.950478,262.870468 C312.950478,262.870468 320.70245,218.592277 316.99658,198.616678 C313.291429,178.641782 297.202688,177.023203 289.749948,177" id="Fill-539" fill="#343C4E"></path>
                        <path d="M310.794921,299.791739 C307.413003,293.65898 305.154883,286.96087 304.016353,280.084191 C301.11496,274.241519 298.54748,268.267568 296.899663,262 C290.605127,264.617839 279.828024,270.861409 274.072239,284.304918 C265.619196,304.049874 280.860628,358.493721 274.740766,368.281149 C268.621605,378.068577 238.727998,409.864484 228,435.104854 C228,435.104854 230.326165,441.507937 237.268182,437.89491 C237.268182,437.89491 286.050305,395.806923 296.84214,374.18452 C302.447805,362.954422 311.037639,337.975201 318,316.556071 C316.446183,311.462966 315.268369,306.276695 314.244885,301.050193 C312.980085,301.400273 311.492911,301.057957 310.794921,299.791739" id="Fill-540" fill="#566683"></path>
                        <path d="M314.917868,146.445368 C314.346574,145.131748 315.170609,144.691291 316.469321,144.863246 C317.304557,144.973888 318.888215,145.434783 319.582729,144.737803 C320.258339,144.059852 319.329287,142.66096 318.809802,142.099289 C317.835243,141.047829 316.622646,140.205675 315.36384,139.536885 C312.878435,138.218332 310.103182,137.898384 307.51486,139.137302 C306.371574,139.684879 305.359208,140.46995 304.272631,141.12535 C303.186054,141.780045 301.972756,142.317755 300.70695,142.284633 C297.369505,142.199361 298.252349,138.054835 295.083632,138.00057 C293.716309,137.97661 292.422498,138.710235 291.466842,139.694745 C287.306764,143.980922 289.364399,149.895733 286.631153,154.712573 C285.543176,156.630147 283.599659,158.451173 284.072936,160.606242 C284.381687,162.010772 285.641892,162.959341 286.470127,164.130605 C288.025781,166.327957 288.125897,169.445689 290.077816,171.296314 C290.691116,171.879127 291.429736,172.275186 292.221565,172.570469 C293.070804,172.887598 293.981652,173.087037 294.867297,173.273791 C295.916768,173.495781 296.965539,173.717067 298.015711,173.938353 C298.245348,173.986979 298.486887,174.034901 298.710924,173.964428 C298.948963,173.889021 299.126792,173.692401 299.292719,173.503533 C302.377422,169.986218 305.462825,166.468199 308.547528,162.950884 C309.985563,161.310974 311.4397,159.656969 313.204688,158.381405 C314.877261,157.172791 314.655325,156.575883 315.211215,154.755562 C315.844819,152.680832 319.089148,154.170634 319.892879,152.237556 C320.178526,151.553262 319.856473,150.747049 319.356592,150.202291 C318.085184,148.81538 315.702696,148.247366 314.917868,146.445368" id="Fill-541" fill="#343C4E"></path>
                        <path d="M312.205966,155.444006 C311.133921,154.71191 309.882087,154.232562 308.585678,154.057527 C307.89624,153.963836 307.171143,153.960931 306.531482,154.230383 C305.892564,154.499835 305.359884,155.092484 305.337596,155.772287 C305.301936,156.833391 306.431186,157.911198 305.858389,158.812519 C305.430462,159.485786 304.398535,159.405168 303.643721,159.114654 C302.888163,158.824866 302.076886,158.402894 301.312413,158.667262 C300.891172,158.813971 300.547197,159.157505 300.111098,159.238849 C300.096982,159.241027 300.08361,159.243206 300.069494,159.245385 C299.418689,159.339076 298.865951,158.813971 298.253035,158.579381 C297.047263,158.11819 295.588152,158.941798 295.160969,160.136538 C294.733042,161.331277 295.198115,162.709767 296.085914,163.631424 C296.971484,164.550902 298.265665,165.344005 298.852578,166.546734 C299.585105,168.048693 299.050197,169.997317 299.064313,171.593693 C299.066541,171.913985 299.073971,172.250982 299.240386,172.52697 C299.478123,172.92207 299.968456,173.084031 300.417927,173.214763 C302.75295,173.897471 305.42972,174.541686 307.498774,173.282307 C308.526243,172.656975 309.234997,171.643081 309.851627,170.625554 C311.92291,167.209833 313.304756,163.39756 313.896127,159.469081 C313.996422,158.807435 314.072944,158.121095 313.884983,157.477606 C313.636102,156.623494 312.951122,155.953132 312.205966,155.444006" id="Fill-542" fill="#FFC0C0"></path>
                        <path d="M293.214355,171 L293.214355,172.397727 L292,177.987109 C295.64448,180.782562 300.502607,179.850999 300.502607,179.850999 L303,172.275092 L300.502607,171.466163 L293.214355,171 Z" id="Fill-543" fill="#FFC0C0"></path>
                        <path d="M380.519407,252.064768 C375.650749,251.402372 368.695523,256.03914 368.695523,256.03914 C369.39178,260.012814 368,261.337605 368,261.337605 C368,261.337605 368,262 371.477613,262 C374.955226,262 377.041794,258.688722 379.128362,256.701536 C381.21493,254.71365 381.910452,255.376045 384.692543,256.03914 C387.474633,256.701536 389.561201,257.363232 388.864944,256.03914 C388.170156,254.71365 385.388065,252.726464 380.519407,252.064768" id="Fill-544" fill="#FFC0C0"></path>
                        <path d="M236.430331,438.735914 C233.576223,440.245479 228.301434,439.486964 226.419706,436.765717 C226.16829,436.402137 225.907666,436.184885 225.641377,436.078872 C224.588261,435.66154 223.452284,436.99342 222.467156,437.890797 C221.130045,439.109946 219.963615,440.580688 219.35455,442.351552 C218.885711,443.713296 218.799309,445.344551 219.606674,446.517412 C220.661207,448.052359 222.71574,448.214365 224.481321,448.570479 C227.708658,449.222234 230.632879,450.939345 233.598885,452.430245 C236.564183,453.920398 239.761776,455.228389 243.03798,454.966343 C243.810643,454.905124 244.717867,454.633373 244.948745,453.853207 C245.184581,453.056617 244.561351,452.289143 244.001861,451.698607 C240.436705,447.935895 238.83543,443.410935 236.430331,438.735914" id="Fill-545" fill="#343C4E"></path>
                        <path d="M343.524291,452.857053 C339.1676,450.510955 335.143756,447.518439 331.615727,444 C329.375578,446.220642 325.543016,446.476516 323.041147,444.572703 C322.70692,444.317538 322.404458,444.198461 322.127547,444.182868 C321.032332,444.118368 320.342471,445.66495 319.673326,446.771373 C318.76456,448.275428 318.084367,449.955262 318.006335,451.742834 C317.945566,453.116471 318.315702,454.619816 319.3902,455.442014 C320.795473,456.518668 322.751806,456.052283 324.493377,455.848151 C327.67613,455.475327 330.872694,456.158602 334.043707,456.623569 C337.21472,457.089953 340.551466,457.321019 343.528434,456.106151 C344.230035,455.8198 345,455.302382 345,454.526256 C344.999309,453.733828 344.207937,453.225624 343.524291,452.857053" id="Fill-546" fill="#343C4E"></path>
                        <path d="M331.665283,233.410214 C318.094135,221.440886 322.396943,204.816819 314.517666,191.981705 C306.63699,179.146591 286.318368,184.535808 290.581329,203.819726 C294.845688,223.102941 310.481205,240.059841 310.481205,240.059841 C331.224166,259.454 368.075918,263 368.075918,263 C369.648139,260.839398 368.737943,257.680299 368.737943,257.680299 C368.737943,257.680299 345.236431,245.37884 331.665283,233.410214" id="Fill-547" fill="#F3F6F8"></path>
                        <path d="M313.079295,259.475074 C313.079295,259.475074 301.44855,265.172429 276.134658,259 C276.134658,259 265.436119,273.346098 270.240781,294.230285 C275.044738,315.114471 319.88496,350.989247 320.686207,362.42843 C321.486749,373.867613 315.881545,416.667313 322.087332,443.319445 C322.087332,443.319445 327.492576,449.350694 331.695951,443.319445 C331.695951,443.319445 346.308487,378.536466 342.305776,354.801837 C338.301656,331.067914 313.079295,259.475074 313.079295,259.475074" id="Fill-549" fill="#6C83AC"></path>
                        <path d="M205.039258,175.986719 C214.42743,175.26718 218.559004,157.952995 224.830765,136.587991 C227.575877,127.236135 196.148238,129.897425 186.933896,132.206844 C182.716102,133.26461 193.494213,176.871422 205.039258,175.986719" id="Fill-550" fill="#6C83AC"></path>
                        <path d="M242.967778,109.449624 C243.823792,130.418441 227.519204,148.111056 206.549694,148.967778 C185.581598,149.823793 167.888286,133.519194 167.032272,112.550377 C166.175551,91.5815607 182.480847,73.8882374 203.44965,73.032223 C224.418453,72.1762086 242.111764,88.4801001 242.967778,109.449624" id="Fill-551" fill="#1494FC"></path>
                        <path d="M204.534912,74.2881425 C204.031003,74.2881425 203.528503,74.2987139 203.022479,74.3184473 C183.072602,75.1338567 167.50427,92.0269975 168.318277,111.977395 C168.713652,121.641089 172.848528,130.57324 179.960345,137.12823 C187.074277,143.682515 196.334228,147.053391 205.976868,146.680572 C225.92745,145.865867 241.495077,128.971317 240.68107,109.022329 C240.286399,99.3579299 236.150819,90.4257786 229.039707,83.8714937 C222.297893,77.6604278 213.646157,74.2881425 204.534912,74.2881425 M204.480645,150 C183.434148,150 165.898808,133.328859 165.033352,112.112005 C164.144639,90.3489596 181.126032,71.9215523 202.887164,71.0335524 C224.677895,70.1420287 243.080101,87.1267886 243.9667,108.887719 C244.854708,130.650059 227.873315,149.077467 206.112183,149.966171 C205.567397,149.988724 205.019793,150 204.480645,150" id="Fill-552" fill="#1494FC"></path>
                        <path d="M192.649639,94.9455651 C192.00067,94.9455651 191.381935,95.0866652 190.864447,95.3801532 C189.373155,96.2218148 188.583564,98.4145092 189.065193,100.370156 C189.547526,102.327918 191.164675,104.193966 193.391418,105.360863 C194.954428,106.179949 196.793759,106.71754 199.214561,107.051242 C199.25745,105.226113 199.214561,103.404512 198.880584,101.697201 C198.403877,99.2519378 197.325309,97.2596055 195.845266,96.0856533 C194.90521,95.3406452 193.733832,94.9455651 192.649639,94.9455651 M217.260537,96.9562405 C216.328215,96.9590625 215.256678,97.5883686 214.457244,98.5965282 C213.534063,99.7613089 212.943452,101.335985 212.416121,102.848577 C211.926054,104.258872 211.516142,105.682571 211.177947,107.116853 C212.996185,106.874867 214.966294,106.418408 216.629145,105.453284 C218.682925,104.260989 220.037111,102.282766 220.077188,100.414602 C220.097578,99.4967464 219.682744,98.4907032 218.992292,97.7859086 C218.689252,97.4754886 218.06208,96.9562405 217.260537,96.9562405 M209.795636,143 C208.64043,143 207.610376,142.180209 207.382569,140.999202 C205.589643,131.715526 204.218582,121.99444 205.2859,112.387644 C204.832395,112.385528 204.379594,112.377767 203.925386,112.365774 C203.514068,121.518932 202.945253,130.37437 200.451328,140.581546 C200.127898,141.906475 198.797617,142.7178 197.474368,142.391859 C196.153931,142.067329 195.346762,140.729701 195.670895,139.406888 C198.075525,129.567278 198.602153,121.259308 199.015581,112.006674 C196.591264,111.707542 193.759144,111.124094 191.112645,109.737786 C187.602728,107.897136 185.115131,104.914987 184.288276,101.555396 C183.269472,97.421165 185.020212,93.0146113 188.448567,91.077308 C191.599899,89.2994477 195.796048,89.7523788 198.89535,92.2117522 C201.298573,94.1151915 203.007126,97.1467255 203.708828,100.749009 C204.151084,103.010137 204.188348,105.244456 204.127178,107.431506 C204.774741,107.449849 205.418788,107.456199 206.060726,107.446322 C206.491731,105.359452 207.052811,103.283166 207.770685,101.221694 C208.436528,99.3076724 209.204322,97.291353 210.605617,95.5233697 C212.364794,93.3031609 214.782783,92.0255002 217.23874,92.0184452 C219.187756,92.0184452 221.049587,92.8375308 222.505724,94.327547 C224.115842,95.9734788 225.046054,98.2889302 224.998243,100.522544 C224.919495,104.130471 222.657595,107.657972 219.09354,109.727909 C216.19814,111.407705 212.939936,111.946707 210.270235,112.182344 C209.111512,121.416635 210.453746,130.945825 212.214329,140.060887 C212.471666,141.39922 211.600515,142.694518 210.266719,142.954142 C210.109223,142.984479 209.95032,143 209.795636,143" id="Fill-553" fill="#FFFFFF"></path>
                        <path d="M205.04573,159 C201.590116,159 198.091643,158.296813 195.12475,157.162049 C194.275882,156.837949 193.806515,155.745676 194.076107,154.722556 C194.345699,153.701101 195.249177,153.12872 196.101502,153.456985 C202.45834,155.885647 211.101869,155.992292 215.31787,151.489894 C215.98079,150.778375 217.003165,150.849194 217.593502,151.65486 C218.18453,152.458859 218.12439,153.686937 217.456632,154.398456 C214.372916,157.696104 209.750453,159 205.04573,159" id="Fill-554" fill="#FFFFFF"></path>
                        <path d="M203.772809,164 C201.744155,164 199.625405,163.863713 197.478406,163.586577 C196.509508,163.462265 195.858994,162.774558 196.026204,162.049785 C196.19265,161.325582 197.116501,160.836318 198.083872,160.965191 C203.634613,161.68027 208.875369,161.372912 212.466935,160.12466 C213.364826,159.81388 214.420765,160.104702 214.833062,160.769029 C215.248414,161.435068 214.862076,162.226559 213.969529,162.537339 C211.191868,163.502752 207.646876,164 203.772809,164" id="Fill-555" fill="#FFFFFF"></path>
                        <path d="M202.408674,169 C201.814946,169 201.212497,168.988383 200.602781,168.965655 C199.668223,168.929794 198.951679,168.374714 199.002549,167.725184 C199.052693,167.07414 199.86589,166.578659 200.788094,166.611994 C203.771996,166.726141 206.54515,166.530676 208.810328,166.052368 C209.709278,165.859933 210.653284,166.215003 210.92653,166.836248 C211.198322,167.459514 210.692527,168.11763 209.797211,168.306529 C207.631593,168.764634 205.106249,169 202.408674,169" id="Fill-556" fill="#FFFFFF"></path>
                        <path d="M210.235556,66 C210.180011,66 210.121821,65.9947195 210.065747,65.9841584 C209.389154,65.8506367 208.917814,64.9620002 209.011976,63.9986821 L209.543093,58.5197631 C209.636197,57.5587081 210.258303,56.8797838 210.934367,57.0178317 C211.61096,57.1513535 212.081771,58.0392356 211.988137,59.0033081 L211.456491,64.4814727 C211.370793,65.3625655 210.841792,66 210.235556,66" id="Fill-557" fill="#1494FC"></path>
                        <path d="M198.743427,66 C198.119257,66 197.579027,65.3488897 197.498853,64.4596418 L197.00974,58.9764491 C196.924186,58.0133485 197.411685,57.1338974 198.099886,57.014075 C198.794007,56.8919919 199.415487,57.5777677 199.501041,58.5401148 L199.990154,64.0233075 C200.076246,64.9864082 199.58821,65.8658592 198.900546,65.9856816 C198.847276,65.9954784 198.795083,66 198.743427,66" id="Fill-558" fill="#1494FC"></path>
                        <path d="M186.742968,69 C186.247476,69 185.777298,68.5680733 185.578563,67.8565721 L184.092627,62.5226694 C183.831417,61.5849957 184.141638,60.5161733 184.784699,60.1352925 C185.423991,59.7544116 186.160227,60.2051861 186.421437,61.1428598 L187.907373,66.4767625 C188.168583,67.4144362 187.858362,68.4832585 187.215301,68.8641394 C187.061267,68.956022 186.90131,69 186.742968,69" id="Fill-559" fill="#1494FC"></path>
                        <path d="M176.205325,74 C175.660988,74 175.12435,73.7572553 174.770184,73.2961166 L171.363266,68.8475733 C170.765804,68.0653114 170.921329,66.9520342 171.712042,66.3600111 C172.505065,65.7672272 173.627616,65.9232229 174.230467,66.7047238 L177.635846,71.1532671 C178.234848,71.934768 178.078553,73.0480452 177.28707,73.6400683 C176.962161,73.8828129 176.581818,74 176.205325,74" id="Fill-560" fill="#1494FC"></path>
                        <path d="M167.212795,83 C166.830869,83 166.443586,82.8770712 166.117533,82.6243418 L161.688266,79.1869163 C160.910638,78.5829617 160.771339,77.4636224 161.375991,76.6871094 C161.981408,75.9128869 163.104223,75.7701063 163.881852,76.3755879 L168.311884,79.8130134 C169.089512,80.4169679 169.228812,81.5363073 168.623394,82.3128203 C168.271318,82.7633048 167.744736,83 167.212795,83" id="Fill-561" fill="#1494FC"></path>
                        <path d="M161.162004,92 C160.922439,92 160.681299,91.9686178 160.44725,91.9015982 L155.12403,90.3851467 C154.187837,90.1186639 153.750474,89.3910225 154.145283,88.7596553 C154.540092,88.1272242 155.618921,87.830955 156.55275,88.0985016 L161.87597,89.6149531 C162.812163,89.8814358 163.249526,90.6096091 162.854717,91.2409764 C162.558413,91.7143688 161.878334,92 161.162004,92" id="Fill-562" fill="#1494FC"></path>
                        <path d="M159.241493,104 C159.160752,104 159.079257,103.996297 158.997007,103.98889 L153.517956,103.456155 C152.555104,103.362517 151.882768,102.739317 152.017084,102.064272 C152.151401,101.388169 153.039549,100.921563 154.003155,101.01097 L159.481451,101.542647 C160.445058,101.636814 161.11664,102.260014 160.983078,102.935059 C160.860835,103.552968 160.106249,104 159.241493,104" id="Fill-563" fill="#1494FC"></path>
                        <path d="M153.757044,118 C152.882774,118 152.125324,117.535797 152.013779,116.900544 C151.89319,116.213114 152.577533,115.585392 153.540738,115.499866 L159.023016,115.01092 C159.991497,114.919478 160.866521,115.412727 160.986357,116.100157 C161.106192,116.788124 160.423357,117.415309 159.459398,117.501372 L153.976365,117.990318 C153.902505,117.996773 153.828644,118 153.757044,118" id="Fill-564" fill="#1494FC"></path>
                        <path d="M155.832999,130 C155.109703,130 154.424888,129.703806 154.135099,129.215895 C153.75421,128.572886 154.206564,127.84048 155.141902,127.578752 L160.475915,126.092399 C161.415179,125.832288 162.482453,126.13979 162.864912,126.783338 C163.245801,127.426347 162.793447,128.158753 161.857324,128.419942 L156.523311,129.906834 C156.296348,129.969842 156.063888,130 155.832999,130" id="Fill-565" fill="#1494FC"></path>
                        <path d="M162.777588,143 C162.240396,143 161.710052,142.754385 161.359279,142.287794 C160.768063,141.496283 160.922525,140.369842 161.704725,139.771589 L166.152919,136.36455 C166.936642,135.764757 168.04831,135.921827 168.641047,136.712568 C169.231502,137.504079 169.077801,138.63052 168.295601,139.229543 L163.846646,142.635812 C163.526309,142.881427 163.149665,143 162.777588,143" id="Fill-566" fill="#1494FC"></path>
                        <path d="M172.778932,152 C172.398672,152 172.01154,151.876764 171.686257,151.623404 C170.911229,151.017942 170.771495,149.895809 171.375483,149.116592 L174.813093,144.686998 C175.418608,143.913139 176.535717,143.770002 177.313035,144.375464 C178.088827,144.980161 178.228561,146.102294 177.624574,146.881511 L174.186963,151.311105 C173.835719,151.762714 173.309616,152 172.778932,152" id="Fill-567" fill="#1494FC"></path>
                        <path d="M234.205325,152 C233.660988,152 233.12435,151.75732 232.770184,151.296305 L229.363266,146.848193 C228.765804,146.066141 228.921329,144.952401 229.712042,144.361297 C230.505065,143.767151 231.629925,143.922344 232.230467,144.705157 L235.635846,149.15403 C236.234848,149.935321 236.078553,151.049061 235.28707,151.640165 C234.962931,151.882844 234.581818,152 234.205325,152" id="Fill-568" fill="#1494FC"></path>
                        <path d="M244.212678,143 C243.83076,143 243.444249,142.877062 243.117437,142.624315 L238.688254,139.18588 C237.91064,138.582645 237.771343,137.463226 238.375983,136.685893 C238.981389,135.913143 240.104949,135.770352 240.881798,136.375113 L245.311746,139.812785 C246.08936,140.416019 246.228657,141.536202 245.624017,142.312771 C245.271947,142.763288 244.744609,143 244.212678,143" id="Fill-569" fill="#1494FC"></path>
                        <path d="M252.161286,131 C251.922519,131 251.680599,130.968084 251.447348,130.901593 L246.123544,129.385059 C245.188175,129.11803 244.75004,128.390882 245.145622,127.758948 C245.540416,127.127015 246.619203,126.831262 247.552208,127.098291 L252.876013,128.614824 C253.81217,128.881321 254.249516,129.609002 253.854723,130.240403 C253.55843,130.714353 252.878377,131 252.161286,131" id="Fill-570" fill="#1494FC"></path>
                        <path d="M255.241788,118 C255.161061,118 255.079579,117.996298 254.999607,117.988895 L249.51921,117.4564 C248.55501,117.362274 247.882787,116.739884 248.01708,116.065143 C248.151374,115.389344 249.056726,114.916602 250.000555,115.012314 L255.480198,115.543752 C256.445152,115.637877 257.116621,116.260796 256.983082,116.935538 C256.860859,117.553169 256.106399,118 255.241788,118" id="Fill-571" fill="#1494FC"></path>
                        <path d="M249.757044,105 C248.882774,105 248.125324,104.535324 248.013779,103.900697 C247.89319,103.213364 248.577533,102.585728 249.540738,102.500215 L255.023016,102.010799 C255.993758,101.919908 256.866521,102.413088 256.986357,103.100422 C257.106192,103.787755 256.423357,104.41539 255.459398,104.500904 L249.976365,104.989781 C249.902505,104.996773 249.829398,105 249.757044,105" id="Fill-572" fill="#1494FC"></path>
                        <path d="M246.832997,93 C246.109701,93 245.424888,92.703817 245.135099,92.2159228 C244.75421,91.5734749 245.206564,90.8405565 246.1419,90.5793769 L251.475907,89.0930767 C252.413599,88.8313586 253.482442,89.140466 253.864901,89.7834524 C254.24579,90.4264388 253.793436,91.1593571 252.8581,91.4205367 L247.523307,92.906837 C247.296345,92.9698432 247.063886,93 246.832997,93" id="Fill-573" fill="#1494FC"></path>
                        <path d="M239.777588,83 C239.240396,83 238.710052,82.7543771 238.359279,82.2877707 C237.768063,81.4962337 237.922525,80.3697564 238.704725,79.7714838 L243.152919,76.3643327 C243.936642,75.7645201 245.04831,75.9223656 245.641047,76.7123626 C246.231502,77.5038996 246.077801,78.6296069 245.295601,79.2294195 L240.847407,82.6358006 C240.526309,82.8814234 240.150426,83 239.777588,83" id="Fill-574" fill="#1494FC"></path>
                        <path d="M230.779657,74 C230.398642,74 230.012282,73.8767644 229.686243,73.6234041 C228.911231,73.017942 228.7715,71.8958087 229.375474,71.1173574 L232.813012,66.6869976 C233.418513,65.9131389 234.535598,65.7700019 235.3129,66.375464 C236.088675,66.9801606 236.228406,68.1022939 235.625195,68.8815106 L232.186894,73.3111051 C231.835658,73.762714 231.309566,74 230.779657,74" id="Fill-575" fill="#1494FC"></path>
                        <path d="M222.241577,69 C222.07978,69 221.916386,68.9527337 221.758847,68.8542622 C221.127094,68.4595884 220.831176,67.3819163 221.098354,66.446831 L222.614668,61.1246433 C222.881846,60.1887702 223.611529,59.7499812 224.241153,60.1454428 C224.872906,60.5401165 225.168824,61.6185764 224.901646,62.5536617 L223.3848,67.8750616 C223.184683,68.5769664 222.725371,69 222.241577,69" id="Fill-576" fill="#1494FC"></path>
                    </g>
                </g>
            </g>
        </g>
    </g>
</svg>